<svg xmlns="http://www.w3.org/2000/svg" xmlns:xlink="http://www.w3.org/1999/xlink" viewBox="0 0 361.57 342.01"><defs><style>.cls-1{isolation:isolate;}.cls-2,.cls-3{fill:url(#linear-gradient);}.cls-11,.cls-3{mix-blend-mode:screen;}.cls-4{fill:url(#linear-gradient-3);}.cls-5{fill:url(#linear-gradient-4);}.cls-6,.cls-9{mix-blend-mode:multiply;}.cls-6{fill:url(#linear-gradient-5);}.cls-7{fill:url(#linear-gradient-6);}.cls-8{fill:url(#linear-gradient-7);}.cls-9{opacity:0.7;fill:url(#linear-gradient-8);}.cls-10{fill:url(#linear-gradient-9);}.cls-11{fill:url(#linear-gradient-10);}.cls-12{fill:url(#linear-gradient-11);}.cls-13{fill:url(#linear-gradient-12);}.cls-14{fill:url(#linear-gradient-13);}.cls-15{fill:url(#linear-gradient-14);}.cls-16{fill:url(#linear-gradient-15);}.cls-17{fill:url(#linear-gradient-16);}.cls-18{fill:url(#linear-gradient-17);}.cls-19{fill:url(#linear-gradient-18);}.cls-20{fill:url(#linear-gradient-19);}.cls-21{fill:url(#linear-gradient-20);}.cls-22{fill:url(#linear-gradient-21);}.cls-23{fill:url(#linear-gradient-22);}.cls-24{fill:url(#linear-gradient-23);}.cls-25{fill:url(#linear-gradient-24);}.cls-26{fill:url(#linear-gradient-25);}.cls-27{fill:url(#linear-gradient-26);}.cls-28{fill:url(#linear-gradient-27);}.cls-29{font-size:68.71px;font-family:Montserrat-ExtraBold, Montserrat;font-weight:800;}.cls-29,.cls-33{fill:#fff;}.cls-30{letter-spacing:0.01em;}.cls-31{letter-spacing:0em;}.cls-32{letter-spacing:0em;}.cls-33{font-size:26.96px;font-family:Montserrat-Regular, Montserrat;}.cls-34{letter-spacing:-0.06em;}.cls-35{letter-spacing:-0.01em;}.cls-36{letter-spacing:0em;}.cls-37{letter-spacing:0em;}.cls-38{letter-spacing:-0.01em;}</style><linearGradient id="linear-gradient" x1="127.03" y1="81.96" x2="127.03" y2="199.78" gradientUnits="userSpaceOnUse"><stop offset="0" stop-color="#ff0"/><stop offset="1" stop-color="#ff9615"/></linearGradient><linearGradient id="linear-gradient-3" x1="180.81" y1="76.14" x2="180.81" y2="205.64" xlink:href="#linear-gradient"/><linearGradient id="linear-gradient-4" x1="234.56" y1="81.96" x2="234.56" y2="199.78" xlink:href="#linear-gradient"/><linearGradient id="linear-gradient-5" x1="156.42" y1="139.78" x2="267.49" y2="139.78" xlink:href="#linear-gradient"/><linearGradient id="linear-gradient-6" x1="180.55" y1="2.42" x2="180.55" y2="92.89" xlink:href="#linear-gradient"/><linearGradient id="linear-gradient-7" x1="180.75" y1="2.41" x2="180.75" y2="92.41" xlink:href="#linear-gradient"/><linearGradient id="linear-gradient-8" x1="180.78" y1="158.91" x2="180.78" y2="71.34" xlink:href="#linear-gradient"/><linearGradient id="linear-gradient-9" x1="180.78" y1="5.77" x2="180.78" y2="103.52" xlink:href="#linear-gradient"/><linearGradient id="linear-gradient-10" x1="180.78" y1="87.12" x2="180.78" y2="82.18" xlink:href="#linear-gradient"/><linearGradient id="linear-gradient-11" x1="99.9" y1="194.09" x2="99.9" y2="233.69" gradientUnits="userSpaceOnUse"><stop offset="0" stop-color="#ed008c"/><stop offset="1" stop-color="#fd962f"/></linearGradient><linearGradient id="linear-gradient-12" x1="110.69" y1="194.09" x2="110.69" y2="233.69" xlink:href="#linear-gradient-11"/><linearGradient id="linear-gradient-13" x1="121.47" y1="194.09" x2="121.47" y2="233.69" xlink:href="#linear-gradient-11"/><linearGradient id="linear-gradient-14" x1="132.25" y1="194.09" x2="132.25" y2="233.69" xlink:href="#linear-gradient-11"/><linearGradient id="linear-gradient-15" x1="143.04" y1="194.09" x2="143.04" y2="233.69" xlink:href="#linear-gradient-11"/><linearGradient id="linear-gradient-16" x1="153.82" y1="194.09" x2="153.82" y2="233.69" xlink:href="#linear-gradient-11"/><linearGradient id="linear-gradient-17" x1="164.61" y1="194.09" x2="164.61" y2="233.69" xlink:href="#linear-gradient-11"/><linearGradient id="linear-gradient-18" x1="175.39" y1="194.09" x2="175.39" y2="233.69" xlink:href="#linear-gradient-11"/><linearGradient id="linear-gradient-19" x1="186.18" y1="194.09" x2="186.18" y2="233.69" xlink:href="#linear-gradient-11"/><linearGradient id="linear-gradient-20" x1="196.96" y1="194.09" x2="196.96" y2="233.69" xlink:href="#linear-gradient-11"/><linearGradient id="linear-gradient-21" x1="207.74" y1="194.09" x2="207.74" y2="233.69" xlink:href="#linear-gradient-11"/><linearGradient id="linear-gradient-22" x1="218.53" y1="194.09" x2="218.53" y2="233.69" xlink:href="#linear-gradient-11"/><linearGradient id="linear-gradient-23" x1="229.31" y1="194.09" x2="229.31" y2="233.69" xlink:href="#linear-gradient-11"/><linearGradient id="linear-gradient-24" x1="240.1" y1="194.09" x2="240.1" y2="233.69" xlink:href="#linear-gradient-11"/><linearGradient id="linear-gradient-25" x1="250.88" y1="194.09" x2="250.88" y2="233.69" xlink:href="#linear-gradient-11"/><linearGradient id="linear-gradient-26" x1="261.66" y1="194.09" x2="261.66" y2="233.69" xlink:href="#linear-gradient-11"/><linearGradient id="linear-gradient-27" x1="180.78" y1="194.09" x2="180.78" y2="233.69" xlink:href="#linear-gradient-11"/></defs><title>Asset 4</title><g class="cls-1"><g id="Layer_2" data-name="Layer 2"><g id="OBJECTS"><path class="cls-2" d="M103.25,85.84H150.8a0,0,0,0,1,0,0V189.5a4.21,4.21,0,0,1-4.21,4.21H107.47a4.21,4.21,0,0,1-4.21-4.21V85.84A0,0,0,0,1,103.25,85.84Z"/><path class="cls-3" d="M103.25,85.84H150.8a0,0,0,0,1,0,0V189.5a4.21,4.21,0,0,1-4.21,4.21H107.47a4.21,4.21,0,0,1-4.21-4.21V85.84A0,0,0,0,1,103.25,85.84Z"/><path class="cls-4" d="M210.81,85.84V168.5a30,30,0,1,0-60,0V85.84Z"/><path class="cls-5" d="M210.82,85.84h47.5a0,0,0,0,1,0,0V189.5a4.21,4.21,0,0,1-4.21,4.21H215a4.21,4.21,0,0,1-4.21-4.21V85.84A0,0,0,0,1,210.82,85.84Z"/><path class="cls-6" d="M210.82,85.84h47.5a0,0,0,0,1,0,0V189.5a4.21,4.21,0,0,1-4.21,4.21H215a4.21,4.21,0,0,1-4.21-4.21V85.84A0,0,0,0,1,210.82,85.84Z"/><path class="cls-7" d="M198.92,19.46a27.07,27.07,0,0,1-18.68,7.43A27,27,0,0,1,162.18,20L173.27,6.87a9.83,9.83,0,0,1,15,0Z"/><path class="cls-8" d="M257.48,83.62l-4.8,4.8-67-79.37a6.43,6.43,0,0,0-9.84,0L108.8,88.52,104,83.72l66.68-79a13.2,13.2,0,0,1,20.18,0Z"/><path class="cls-9" d="M103.26,89.32v3.59c0,14.49,11.85,26.63,26.34,26.35a25.85,25.85,0,0,0,25.34-25.84,25.85,25.85,0,0,0,51.69,0A25.84,25.84,0,0,0,232,119.26c14.49.28,26.35-11.86,26.35-26.35V89.32a3.19,3.19,0,0,0-3.18-3.19H106.44A3.18,3.18,0,0,0,103.26,89.32Z"/><path class="cls-10" d="M103.26,85.76v3.59c0,14.49,11.85,26.62,26.34,26.35a25.85,25.85,0,0,0,25.34-25.84,25.85,25.85,0,0,0,51.69,0A25.84,25.84,0,0,0,232,115.7c14.49.27,26.35-11.86,26.35-26.35V85.76a3.19,3.19,0,0,0-3.18-3.19H106.44A3.18,3.18,0,0,0,103.26,85.76Z"/><path class="cls-11" d="M258.31,85.75v.38H103.25v-.38a3.19,3.19,0,0,1,3.19-3.18H255.12A3.19,3.19,0,0,1,258.31,85.75Z"/><path class="cls-12" d="M99.9,226h0a1.31,1.31,0,0,1-1.31-1.31V209.51a1.31,1.31,0,0,1,1.31-1.31h0a1.31,1.31,0,0,1,1.31,1.31V224.7A1.31,1.31,0,0,1,99.9,226Z"/><path class="cls-13" d="M110.69,220.79h0a1.32,1.32,0,0,1-1.32-1.31v-10a1.32,1.32,0,0,1,1.32-1.31h0a1.31,1.31,0,0,1,1.31,1.31v10A1.31,1.31,0,0,1,110.69,220.79Z"/><path class="cls-14" d="M121.47,220.79h0a1.31,1.31,0,0,1-1.31-1.31v-10a1.31,1.31,0,0,1,1.31-1.31h0a1.31,1.31,0,0,1,1.31,1.31v10A1.31,1.31,0,0,1,121.47,220.79Z"/><path class="cls-15" d="M132.25,220.79h0a1.31,1.31,0,0,1-1.31-1.31v-10a1.31,1.31,0,0,1,1.31-1.31h0a1.32,1.32,0,0,1,1.32,1.31v10A1.32,1.32,0,0,1,132.25,220.79Z"/><path class="cls-16" d="M143,220.79h0a1.31,1.31,0,0,1-1.31-1.31v-10A1.31,1.31,0,0,1,143,208.2h0a1.31,1.31,0,0,1,1.31,1.31v10A1.31,1.31,0,0,1,143,220.79Z"/><path class="cls-17" d="M153.82,226h0a1.31,1.31,0,0,1-1.31-1.31V209.51a1.31,1.31,0,0,1,1.31-1.31h0a1.31,1.31,0,0,1,1.31,1.31V224.7A1.31,1.31,0,0,1,153.82,226Z"/><path class="cls-18" d="M164.61,220.79h0a1.31,1.31,0,0,1-1.31-1.31v-10a1.31,1.31,0,0,1,1.31-1.31h0a1.31,1.31,0,0,1,1.31,1.31v10A1.31,1.31,0,0,1,164.61,220.79Z"/><path class="cls-19" d="M175.39,220.79h0a1.31,1.31,0,0,1-1.31-1.31v-10a1.31,1.31,0,0,1,1.31-1.31h0a1.31,1.31,0,0,1,1.31,1.31v10A1.31,1.31,0,0,1,175.39,220.79Z"/><path class="cls-20" d="M186.18,220.79h0a1.32,1.32,0,0,1-1.32-1.31v-10a1.32,1.32,0,0,1,1.32-1.31h0a1.31,1.31,0,0,1,1.31,1.31v10A1.31,1.31,0,0,1,186.18,220.79Z"/><path class="cls-21" d="M197,220.79h0a1.31,1.31,0,0,1-1.31-1.31v-10A1.31,1.31,0,0,1,197,208.2h0a1.31,1.31,0,0,1,1.31,1.31v10A1.31,1.31,0,0,1,197,220.79Z"/><path class="cls-22" d="M207.74,226h0a1.31,1.31,0,0,1-1.31-1.31V209.51a1.31,1.31,0,0,1,1.31-1.31h0a1.32,1.32,0,0,1,1.32,1.31V224.7A1.32,1.32,0,0,1,207.74,226Z"/><path class="cls-23" d="M218.53,220.79h0a1.31,1.31,0,0,1-1.31-1.31v-10a1.31,1.31,0,0,1,1.31-1.31h0a1.31,1.31,0,0,1,1.31,1.31v10A1.31,1.31,0,0,1,218.53,220.79Z"/><path class="cls-24" d="M229.31,220.79h0a1.31,1.31,0,0,1-1.31-1.31v-10a1.31,1.31,0,0,1,1.31-1.31h0a1.31,1.31,0,0,1,1.31,1.31v10A1.31,1.31,0,0,1,229.31,220.79Z"/><path class="cls-25" d="M240.1,220.79h0a1.32,1.32,0,0,1-1.32-1.31v-10a1.32,1.32,0,0,1,1.32-1.31h0a1.31,1.31,0,0,1,1.31,1.31v10A1.31,1.31,0,0,1,240.1,220.79Z"/><path class="cls-26" d="M250.88,220.79h0a1.31,1.31,0,0,1-1.31-1.31v-10a1.31,1.31,0,0,1,1.31-1.31h0a1.31,1.31,0,0,1,1.31,1.31v10A1.31,1.31,0,0,1,250.88,220.79Z"/><path class="cls-27" d="M261.66,226h0a1.31,1.31,0,0,1-1.31-1.31V209.51a1.31,1.31,0,0,1,1.31-1.31h0a1.32,1.32,0,0,1,1.32,1.31V224.7A1.32,1.32,0,0,1,261.66,226Z"/><path class="cls-28" d="M268.18,204.84H93.39a2.56,2.56,0,0,1-2.55-2.56h0a2.55,2.55,0,0,1,2.55-2.55H268.18a2.55,2.55,0,0,1,2.55,2.55h0A2.56,2.56,0,0,1,268.18,204.84Z"/></g><g id="TEXTS"><text class="cls-29" transform="translate(0 290.91)">Delisn<tspan class="cls-30" x="229.3" y="0">a</tspan><tspan class="cls-31" x="272.93" y="0">c</tspan><tspan class="cls-32" x="314.23" y="0">k</tspan></text><text class="cls-33" transform="translate(12.09 334.95)">Pilihan <tspan class="cls-34" x="100.54" y="0">T</tspan><tspan x="114.53" y="0">e</tspan><tspan class="cls-35" x="130.81" y="0">r</tspan><tspan class="cls-36" x="141.41" y="0">b</tspan><tspan class="cls-37" x="159.61" y="0">aik Untu</tspan><tspan class="cls-38" x="274.68" y="0">k</tspan><tspan x="290.67" y="0">mu</tspan></text></g></g></g></svg>