<svg xmlns="http://www.w3.org/2000/svg" viewBox="0 0 179.9 226.01"><defs><style>.cls-1{isolation:isolate;}.cls-2,.cls-3,.cls-4,.cls-5{fill:#2563eb;}.cls-3{mix-blend-mode:screen;}.cls-4,.cls-5{mix-blend-mode:multiply;}.cls-5{opacity:0.7;}</style></defs><title>Asset 6</title><g class="cls-1"><g id="Layer_2" data-name="Layer 2"><g id="OBJECTS"><path class="cls-2" d="M12.42,85.84H60a0,0,0,0,1,0,0V189.5a4.21,4.21,0,0,1-4.21,4.21H16.63a4.21,4.21,0,0,1-4.21-4.21V85.84A0,0,0,0,1,12.42,85.84Z"/><path class="cls-3" d="M12.42,85.84H60a0,0,0,0,1,0,0V189.5a4.21,4.21,0,0,1-4.21,4.21H16.63a4.21,4.21,0,0,1-4.21-4.21V85.84A0,0,0,0,1,12.42,85.84Z"/><path class="cls-2" d="M120,85.84V168.5a30,30,0,1,0-60,0V85.84Z"/><path class="cls-2" d="M120,85.84h47.5a0,0,0,0,1,0,0V189.5a4.21,4.21,0,0,1-4.21,4.21H124.19A4.21,4.21,0,0,1,120,189.5V85.84A0,0,0,0,1,120,85.84Z"/><path class="cls-4" d="M120,85.84h47.5a0,0,0,0,1,0,0V189.5a4.21,4.21,0,0,1-4.21,4.21H124.19A4.21,4.21,0,0,1,120,189.5V85.84A0,0,0,0,1,120,85.84Z"/><path class="cls-2" d="M108.08,19.46A27,27,0,0,1,89.4,26.89,27,27,0,0,1,71.34,20L82.44,6.87a9.83,9.83,0,0,1,15,0Z"/><path class="cls-2" d="M166.65,83.62l-4.8,4.8-67-79.37a6.43,6.43,0,0,0-9.84,0L18,88.52l-4.79-4.8,66.68-79a13.2,13.2,0,0,1,20.18,0Z"/><path class="cls-5" d="M12.42,89.32v3.59c0,14.49,11.86,26.63,26.35,26.35A25.84,25.84,0,0,0,64.1,93.42a25.85,25.85,0,0,0,51.69,0,25.85,25.85,0,0,0,25.34,25.84c14.49.28,26.35-11.86,26.35-26.35V89.32a3.19,3.19,0,0,0-3.19-3.19H15.61A3.19,3.19,0,0,0,12.42,89.32Z"/><path class="cls-2" d="M12.42,85.76v3.59c0,14.49,11.86,26.62,26.35,26.35A25.84,25.84,0,0,0,64.1,89.86a25.85,25.85,0,0,0,51.69,0,25.85,25.85,0,0,0,25.34,25.84c14.49.27,26.35-11.86,26.35-26.35V85.76a3.19,3.19,0,0,0-3.19-3.19H15.61A3.19,3.19,0,0,0,12.42,85.76Z"/><path class="cls-3" d="M167.48,85.75v.38H12.42v-.38a3.19,3.19,0,0,1,3.19-3.18H164.29A3.19,3.19,0,0,1,167.48,85.75Z"/><path class="cls-2" d="M9.07,226h0a1.31,1.31,0,0,1-1.31-1.31V209.51a1.31,1.31,0,0,1,1.31-1.31h0a1.31,1.31,0,0,1,1.31,1.31V224.7A1.31,1.31,0,0,1,9.07,226Z"/><path class="cls-2" d="M19.85,220.79h0a1.31,1.31,0,0,1-1.31-1.31v-10a1.31,1.31,0,0,1,1.31-1.31h0a1.31,1.31,0,0,1,1.31,1.31v10A1.31,1.31,0,0,1,19.85,220.79Z"/><path class="cls-2" d="M30.63,220.79h0a1.31,1.31,0,0,1-1.31-1.31v-10a1.31,1.31,0,0,1,1.31-1.31h0A1.32,1.32,0,0,1,32,209.51v10A1.32,1.32,0,0,1,30.63,220.79Z"/><path class="cls-2" d="M41.42,220.79h0a1.31,1.31,0,0,1-1.31-1.31v-10a1.31,1.31,0,0,1,1.31-1.31h0a1.31,1.31,0,0,1,1.31,1.31v10A1.31,1.31,0,0,1,41.42,220.79Z"/><path class="cls-2" d="M52.2,220.79h0a1.31,1.31,0,0,1-1.31-1.31v-10a1.31,1.31,0,0,1,1.31-1.31h0a1.31,1.31,0,0,1,1.31,1.31v10A1.31,1.31,0,0,1,52.2,220.79Z"/><path class="cls-2" d="M63,226h0a1.31,1.31,0,0,1-1.31-1.31V209.51A1.31,1.31,0,0,1,63,208.2h0a1.31,1.31,0,0,1,1.31,1.31V224.7A1.31,1.31,0,0,1,63,226Z"/><path class="cls-2" d="M73.77,220.79h0a1.31,1.31,0,0,1-1.31-1.31v-10a1.31,1.31,0,0,1,1.31-1.31h0a1.31,1.31,0,0,1,1.31,1.31v10A1.31,1.31,0,0,1,73.77,220.79Z"/><path class="cls-2" d="M84.56,220.79h0a1.32,1.32,0,0,1-1.32-1.31v-10a1.32,1.32,0,0,1,1.32-1.31h0a1.31,1.31,0,0,1,1.31,1.31v10A1.31,1.31,0,0,1,84.56,220.79Z"/><path class="cls-2" d="M95.34,220.79h0A1.31,1.31,0,0,1,94,219.48v-10a1.31,1.31,0,0,1,1.31-1.31h0a1.31,1.31,0,0,1,1.31,1.31v10A1.31,1.31,0,0,1,95.34,220.79Z"/><path class="cls-2" d="M106.12,220.79h0a1.31,1.31,0,0,1-1.31-1.31v-10a1.31,1.31,0,0,1,1.31-1.31h0a1.32,1.32,0,0,1,1.32,1.31v10A1.32,1.32,0,0,1,106.12,220.79Z"/><path class="cls-2" d="M116.91,226h0a1.31,1.31,0,0,1-1.31-1.31V209.51a1.31,1.31,0,0,1,1.31-1.31h0a1.31,1.31,0,0,1,1.31,1.31V224.7A1.31,1.31,0,0,1,116.91,226Z"/><path class="cls-2" d="M127.69,220.79h0a1.31,1.31,0,0,1-1.31-1.31v-10a1.31,1.31,0,0,1,1.31-1.31h0a1.31,1.31,0,0,1,1.31,1.31v10A1.31,1.31,0,0,1,127.69,220.79Z"/><path class="cls-2" d="M138.48,220.79h0a1.32,1.32,0,0,1-1.32-1.31v-10a1.32,1.32,0,0,1,1.32-1.31h0a1.31,1.31,0,0,1,1.31,1.31v10A1.31,1.31,0,0,1,138.48,220.79Z"/><path class="cls-2" d="M149.26,220.79h0a1.31,1.31,0,0,1-1.31-1.31v-10a1.31,1.31,0,0,1,1.31-1.31h0a1.31,1.31,0,0,1,1.31,1.31v10A1.31,1.31,0,0,1,149.26,220.79Z"/><path class="cls-2" d="M160,220.79h0a1.31,1.31,0,0,1-1.31-1.31v-10A1.31,1.31,0,0,1,160,208.2h0a1.32,1.32,0,0,1,1.32,1.31v10A1.32,1.32,0,0,1,160,220.79Z"/><path class="cls-2" d="M170.83,226h0a1.31,1.31,0,0,1-1.31-1.31V209.51a1.31,1.31,0,0,1,1.31-1.31h0a1.31,1.31,0,0,1,1.31,1.31V224.7A1.31,1.31,0,0,1,170.83,226Z"/><path class="cls-2" d="M177.34,204.84H2.55A2.56,2.56,0,0,1,0,202.28H0a2.55,2.55,0,0,1,2.55-2.55H177.34a2.56,2.56,0,0,1,2.56,2.55h0A2.56,2.56,0,0,1,177.34,204.84Z"/></g></g></g></svg>